<svg width="1920" height="2043" viewBox="0 0 1920 2043" fill="none" xmlns="http://www.w3.org/2000/svg">
<g opacity="0.4">
<path fill-rule="evenodd" clip-rule="evenodd" d="M1245.37 527.213C1275.27 538.778 1319.49 585.975 1323.98 588.849L1411.01 500.751C1312.39 392.905 1107.31 309.754 905.119 392.752C816.857 428.982 758.858 479.033 712.602 539.049C600.001 685.145 600.484 890.266 709.958 1037.88C735.005 1071.65 760.62 1096.85 792.594 1122.82C934.051 1237.7 1155.85 1252.23 1315.55 1155.61C1342.62 1139.23 1367.18 1122.8 1388.06 1101.35C1392.89 1096.38 1404.47 1084.72 1410.94 1081.24C1406.53 1069.88 1398.08 1067.25 1389.38 1058.14L1323.79 992.379C1317.29 995.54 1299.46 1013.31 1294.1 1018.34C1283.28 1028.48 1274.26 1035.03 1261.82 1043.58C1241.12 1057.81 1211.67 1072.48 1183.83 1081.41C1117.61 1102.65 1050.55 1104.45 982.89 1084.83C876.818 1054.08 784.261 964.414 761.807 851.279C715.327 617.129 940.257 432.641 1164.97 493.063C1186.5 498.852 1232.47 515.546 1245.37 527.213Z" fill="url(#paint0_linear_75_29)"/>
<path fill-rule="evenodd" clip-rule="evenodd" d="M1323.98 588.898C1319.5 586.024 1275.28 538.828 1245.38 527.262C1241.61 530.675 1239.66 533.602 1235.71 538.018L1117.54 656.416C1103.48 669.779 1087.67 687.279 1072.24 699.326C1051.49 686.627 995.37 620.684 980.542 616.008L887.582 615.915L887.023 937.88L1000.39 938.172L1000.82 787.672C1014.31 793.74 1059.94 842.677 1072.24 853.178C1082.9 847.175 1183.82 739.86 1198.35 722.368C1203.66 715.98 1208.83 712.454 1214.13 706.058L1260.27 655.68C1263.33 652.413 1265.56 651.332 1268.76 648.207C1271.72 645.317 1273.47 642.851 1276.25 639.589C1282.47 632.306 1284.88 630.594 1292.19 623.425L1323.98 588.898Z" fill="url(#paint1_linear_75_29)"/>
<path fill-rule="evenodd" clip-rule="evenodd" d="M1144.56 854.785L1144.98 938.216L1257.37 938.195C1259.59 916.595 1258.26 777.049 1258.02 742.815C1248.51 748.531 1160.82 843.381 1144.56 854.785Z" fill="url(#paint2_linear_75_29)"/>
<path d="M2027.19 -491.949C2030.41 -630.471 1919 -744.5 1780.44 -744.5C1723.15 -744.5 1667.65 -724.574 1623.44 -688.136L453.849 275.94C240.294 451.969 241.205 779.38 455.735 954.219L948.725 1356C1116.18 1492.47 1325.6 1567 1541.62 1567H1550.97C1789.18 1567 1983.82 1376.82 1989.35 1138.67L2027.19 -491.949Z" stroke="url(#paint3_linear_75_29)" stroke-width="123"/>
<path d="M3017.19 -292.949C3020.41 -431.471 2909 -545.5 2770.44 -545.5C2713.15 -545.5 2657.65 -525.574 2613.44 -489.136L1443.85 474.94C1230.29 650.969 1231.2 978.38 1445.74 1153.22L2076.66 1667.41L2037.81 1715.09L2076.66 1667.41C2154.9 1731.18 2252.75 1766 2353.68 1766H2540.97C2779.18 1766 2973.82 1575.82 2979.35 1337.67L3017.19 -292.949Z" stroke="url(#paint4_linear_75_29)" stroke-width="123"/>
<path d="M322.189 1057.14L-73.5 1821.44V243.968L322.189 1057.14Z" stroke="url(#paint5_linear_75_29)" stroke-width="123"/>
</g>
<defs>
<linearGradient id="paint0_linear_75_29" x1="1019.5" y1="359" x2="1019.5" y2="1219.52" gradientUnits="userSpaceOnUse">
<stop stop-color="#005AC6"/>
<stop offset="1" stop-color="#002046"/>
</linearGradient>
<linearGradient id="paint1_linear_75_29" x1="1105.5" y1="527.262" x2="1105.5" y2="938.172" gradientUnits="userSpaceOnUse">
<stop stop-color="#005AC6"/>
<stop offset="1" stop-color="#002046"/>
</linearGradient>
<linearGradient id="paint2_linear_75_29" x1="1201.6" y1="742.815" x2="1201.6" y2="938.216" gradientUnits="userSpaceOnUse">
<stop stop-color="#005AC6"/>
<stop offset="1" stop-color="#002046"/>
</linearGradient>
<linearGradient id="paint3_linear_75_29" x1="1020" y1="-806" x2="1020" y2="1628.5" gradientUnits="userSpaceOnUse">
<stop stop-color="#005AC6"/>
<stop offset="1" stop-color="#002046"/>
</linearGradient>
<linearGradient id="paint4_linear_75_29" x1="2010" y1="-607" x2="2010" y2="1827.5" gradientUnits="userSpaceOnUse">
<stop stop-color="#005AC6"/>
<stop offset="1" stop-color="#002046"/>
</linearGradient>
<linearGradient id="paint5_linear_75_29" x1="128" y1="10" x2="128" y2="2043" gradientUnits="userSpaceOnUse">
<stop stop-color="#005AC6"/>
<stop offset="1" stop-color="#002046"/>
</linearGradient>
</defs>
</svg>
