<svg width="79" height="79" viewBox="0 0 79 79" fill="none" xmlns="http://www.w3.org/2000/svg">
<circle cx="39.5" cy="39.5" r="39.5" fill="#F3F7FC"/>
<path d="M31.1504 54.8477C29.4541 54.8477 28.0742 56.2276 28.0742 57.9238C28.0742 59.6201 29.4541 61 31.1504 61C32.8466 61 34.2266 59.6201 34.2266 57.9238C34.2266 56.2276 32.8466 54.8477 31.1504 54.8477ZM31.1504 59.7695C30.1327 59.7695 29.3047 58.9415 29.3047 57.9238C29.3047 56.9061 30.1327 56.0781 31.1504 56.0781C32.1681 56.0781 32.9961 56.9061 32.9961 57.9238C32.9961 58.9415 32.1681 59.7695 31.1504 59.7695Z" fill="#3A66AE"/>
<path d="M31.1504 58.5391C31.4902 58.5391 31.7656 58.2636 31.7656 57.9238C31.7656 57.584 31.4902 57.3086 31.1504 57.3086C30.8106 57.3086 30.5352 57.584 30.5352 57.9238C30.5352 58.2636 30.8106 58.5391 31.1504 58.5391Z" fill="#3A66AE"/>
<path d="M52.2324 58.5391C52.5722 58.5391 52.8477 58.2636 52.8477 57.9238C52.8477 57.584 52.5722 57.3086 52.2324 57.3086C51.8926 57.3086 51.6172 57.584 51.6172 57.9238C51.6172 58.2636 51.8926 58.5391 52.2324 58.5391Z" fill="#3A66AE"/>
<path d="M52.2324 54.8477C50.5362 54.8477 49.1562 56.2276 49.1562 57.9238C49.1562 59.6201 50.5362 61 52.2324 61C53.9287 61 55.3086 59.6201 55.3086 57.9238C55.3086 56.2276 53.9287 54.8477 52.2324 54.8477ZM52.2324 59.7695C51.2147 59.7695 50.3867 58.9415 50.3867 57.9238C50.3867 56.9061 51.2147 56.0781 52.2324 56.0781C53.2501 56.0781 54.0781 56.9061 54.0781 57.9238C54.0781 58.9415 53.2501 59.7695 52.2324 59.7695Z" fill="#3A66AE"/>
<path d="M27.1592 48.7736L31.6375 46.2344H41.6914C43.1769 46.2344 44.4199 45.1758 44.7058 43.7734H51.1133C53.0822 43.7734 54.7979 42.4412 55.2856 40.5338L58.9808 26.0841C59.0278 25.9 58.9872 25.7045 58.8706 25.5544C58.7541 25.4043 58.5747 25.3164 58.3848 25.3164H28.1777L27.864 24.0896C27.0986 21.0929 24.4022 19 21.3066 19H18.8457C17.828 19 17 19.828 17 20.8457C17 21.8634 17.828 22.6914 18.8457 22.6914H21.3066C22.7141 22.6914 23.9398 23.6421 24.2875 25.0036L29.0128 43.4791L25.3395 45.5619C23.9905 46.3256 23.1523 47.762 23.1523 49.3105C23.1523 51.6852 25.0843 53.6172 27.459 53.6172H54.6934C55.711 53.6172 56.5391 52.7892 56.5391 51.7715C56.5391 50.7538 55.711 49.9258 54.6934 49.9258H27.459C27.1197 49.9258 26.8438 49.6498 26.8438 49.3105C26.8438 49.0895 26.9645 48.8838 27.1592 48.7736ZM49.9637 36.8008H46.1829L46.4136 32.2891H50.6559L49.9637 36.8008ZM51.9007 32.2891H56.124L54.9702 36.8008H51.2085L51.9007 32.2891ZM49.7748 38.0312L49.0827 42.543H45.8894L46.12 38.0312H49.7748ZM44.9508 36.8008H41.1637L40.9329 32.2891H45.1815L44.9508 36.8008ZM46.4765 31.0586L46.7072 26.5469H51.5368L50.8446 31.0586H46.4765ZM45.2444 31.0586H40.8699L40.639 26.5469H45.4751L45.2444 31.0586ZM39.6378 31.0586H37.2026C36.8627 31.0586 36.5873 31.334 36.5873 31.6738C36.5873 32.0137 36.8627 32.2891 37.2026 32.2891H39.7008L39.9316 36.8008H36.1509L34.5773 26.5469H39.4069L39.6378 31.0586ZM34.9061 36.8008H31.115L29.961 32.2891H34.2137L34.9061 36.8008ZM35.0949 38.0312L35.7874 42.543H32.5836L31.4297 38.0312H35.0949ZM37.0322 42.543L36.3398 38.0312H39.9946L40.2254 42.543H37.0322ZM41.4575 42.543L41.2267 38.0312H44.8879L44.6572 42.543H41.4575ZM54.0935 40.2289C53.7452 41.5913 52.5196 42.543 51.1133 42.543H50.3275L51.0197 38.0312H54.6555L54.0935 40.2289ZM56.4387 31.0586H52.0895L52.7817 26.5469H57.5924L56.4387 31.0586ZM33.3325 26.5469L34.0249 31.0586H29.6464L28.4925 26.5469H33.3325ZM21.3066 21.4609H18.8457C18.5064 21.4609 18.2305 21.185 18.2305 20.8457C18.2305 20.5064 18.5064 20.2305 18.8457 20.2305H21.3066C22.5999 20.2305 23.8073 20.6776 24.7633 21.4408L23.8861 22.318C23.1607 21.776 22.2639 21.4609 21.3066 21.4609ZM27.459 51.1562H54.6934C55.0326 51.1562 55.3086 51.4322 55.3086 51.7715C55.3086 52.1108 55.0326 52.3867 54.6934 52.3867H27.459C25.7627 52.3867 24.3828 51.0068 24.3828 49.3105C24.3828 48.2045 24.9817 47.1784 25.9461 46.6324L30.0289 44.3175C30.2704 44.1805 30.3902 43.8988 30.3214 43.6298L25.4796 24.699C25.3366 24.139 25.087 23.6293 24.7566 23.1878L25.634 22.3104C26.1129 22.9094 26.4726 23.6142 26.6718 24.3943L31.5099 43.3107C31.5796 43.583 31.8249 43.7735 32.106 43.7735H43.4317C43.1777 44.4897 42.4935 45.004 41.6914 45.004H31.4752C31.3688 45.004 31.2643 45.0315 31.1718 45.084L26.5527 47.7031C25.9733 48.0309 25.6133 48.6469 25.6133 49.3105C25.6133 50.3282 26.4413 51.1562 27.459 51.1562Z" fill="#3A66AE"/>
</svg>
