<svg width="20" height="15" viewBox="0 0 20 15" fill="none" xmlns="http://www.w3.org/2000/svg">
<path fill-rule="evenodd" clip-rule="evenodd" d="M7.21489 2.09555C7.60427 1.47584 7.40445 0.679694 6.76857 0.317307C6.64935 0.249359 6.49351 0.288472 6.4205 0.404668L3.22805 5.48559H2.85711C2.78956 5.40936 2.67953 5.37671 2.57861 5.41169C2.51828 5.4326 2.46054 5.45736 2.40557 5.48559H1.27785C0.572114 5.48559 0 6.05771 0 6.76344C0 6.89577 0.107271 7.00304 0.239597 7.00304H1.76267C1.77197 7.03387 1.78246 7.06462 1.79416 7.09524L4.28241 13.6061C4.36189 13.8141 4.48833 13.9923 4.6453 14.1331C4.60611 14.2558 4.58496 14.3865 4.58496 14.5222C4.58496 14.6546 4.69223 14.7618 4.82456 14.7618H14.8772C15.0095 14.7618 15.1168 14.6546 15.1168 14.5222C15.1168 14.3902 15.0968 14.2629 15.0596 14.1431C15.2218 14.0008 15.3524 13.819 15.4338 13.6061L17.9221 7.09522C17.9338 7.06461 17.9442 7.03386 17.9535 7.00304H19.4622C19.5945 7.00304 19.7018 6.89577 19.7018 6.76344C19.7018 6.05771 19.1297 5.48559 18.4239 5.48559H17.3107C17.2557 5.45735 17.198 5.43259 17.1376 5.41167C17.0367 5.37669 16.9266 5.40935 16.8591 5.48559H16.5228L13.3346 0.412261C13.2616 0.29607 13.1058 0.256967 12.9865 0.324922C12.3507 0.687348 12.1509 1.48351 12.5403 2.10319L14.6659 5.48559H5.08486L7.21489 2.09555ZM16.2617 7.00304H3.4545L5.83982 13.2446L5.86281 13.2444H13.8389C13.8514 13.2444 13.8639 13.2446 13.8763 13.2449L16.2617 7.00304Z" fill="white"/>
</svg>
