<svg width="15" height="15" viewBox="0 0 15 15" fill="none" xmlns="http://www.w3.org/2000/svg">
<path fill-rule="evenodd" clip-rule="evenodd" d="M0.393341 0.393509C0.00283813 0.784012 0.00283813 1.41719 0.393341 1.80769L6.08578 7.50014L0.464325 13.1216C0.073822 13.5121 0.073822 14.1453 0.464325 14.5358C0.854889 14.9263 1.48807 14.9263 1.87857 14.5358L7.49997 8.91432L13.1213 14.5357C13.5118 14.9262 14.145 14.9262 14.5355 14.5357C14.926 14.1451 14.926 13.5119 14.5355 13.1214L8.91422 7.50014L14.6065 1.80788C14.997 1.41731 14.997 0.784195 14.6065 0.393631C14.216 0.00312805 13.5828 0.00312805 13.1923 0.393631L7.49997 6.08595L1.80759 0.393509C1.41702 0.00294495 0.783905 0.00294495 0.393341 0.393509Z" fill="#3A66AE"/>
</svg>
