<svg width="19" height="12" viewBox="0 0 19 12" fill="none" xmlns="http://www.w3.org/2000/svg">
<path fill-rule="evenodd" clip-rule="evenodd" d="M10.979 0H0.761044C0.559345 0.000457739 0.36604 0.0798501 0.223416 0.220808C0.0807932 0.361767 0.000463146 0.552816 0 0.752161V9.47826C0.00184587 9.6767 0.0827857 9.86642 0.22526 10.0063C0.367734 10.1461 0.560251 10.2248 0.761044 10.2252H1.60275C1.62548 9.66203 1.86783 9.12938 2.27905 8.73885C2.69026 8.34832 3.23843 8.13021 3.80873 8.13021C4.37902 8.13021 4.92719 8.34832 5.33841 8.73885C5.74962 9.12938 5.99198 9.66203 6.0147 10.2252H10.979C11.1807 10.2248 11.374 10.1454 11.5167 10.0044C11.6593 9.86346 11.7396 9.67241 11.7401 9.47306V0.752161C11.7396 0.552816 11.6593 0.361767 11.5167 0.220808C11.374 0.0798501 11.1807 0.000457739 10.979 0ZM4.70639 9.32384C5.22092 9.83836 5.22092 10.6726 4.70639 11.1871C4.19187 11.7016 3.35766 11.7016 2.84314 11.1871C2.32861 10.6726 2.32861 9.83836 2.84313 9.32384C3.35766 8.80931 4.19187 8.80931 4.70639 9.32384ZM16.6633 10.4147C16.6633 11.1468 16.0699 11.7402 15.3378 11.7402C14.6058 11.7402 14.0123 11.1468 14.0123 10.4147C14.0123 9.68268 14.6058 9.08924 15.3378 9.08924C16.0699 9.08924 16.6633 9.68268 16.6633 10.4147ZM16.0897 3.01151L17.2228 4.45423C18.3272 5.86126 18.9349 7.65693 18.9355 9.51454V9.8644C18.9355 9.96005 18.9009 10.0518 18.8393 10.1194C18.7777 10.1871 18.6942 10.2251 18.6071 10.2251H17.5003C17.4543 9.65969 17.2173 9.13369 16.8359 8.75059C16.4545 8.36749 15.9563 8.15503 15.4395 8.15503C14.9226 8.15503 14.4244 8.36749 14.043 8.75059C13.6616 9.13369 13.4246 9.65969 13.3786 10.2251H13.2045C13.1174 10.2251 13.0339 10.1871 12.9723 10.1194C12.9107 10.0518 12.8761 9.96005 12.8761 9.8644V3.01151C12.8761 2.91586 12.9107 2.82412 12.9723 2.75648C13.0339 2.68884 13.1174 2.65084 13.2045 2.65084H15.4739C15.5932 2.66319 15.7091 2.70143 15.8148 2.76335C15.9205 2.82526 16.0139 2.90962 16.0897 3.01151ZM13.6676 3.6986V6.10252H17.3016C17.1045 5.59378 16.8376 5.12121 16.5101 4.70129L15.7301 3.6986C15.6774 3.62843 15.6125 3.57046 15.5392 3.52804C15.4659 3.48563 15.3857 3.45963 15.3032 3.45154H13.8942C13.8645 3.4513 13.8351 3.45752 13.8076 3.46983C13.7802 3.48214 13.7552 3.5003 13.7341 3.52326C13.713 3.54623 13.6963 3.57355 13.6849 3.60364C13.6735 3.63373 13.6676 3.66601 13.6676 3.6986Z" fill="#3A66AE"/>
</svg>
