<svg width="79" height="79" viewBox="0 0 79 79" fill="none" xmlns="http://www.w3.org/2000/svg">
<circle cx="39.5" cy="39.5" r="39.5" fill="#F3F7FC"/>
<g clip-path="url(#clip0)">
<path d="M57.9995 27.0312C57.9995 27.0267 57.999 27.0222 57.9988 27.0177C57.9983 26.9998 57.9973 26.9822 57.9952 26.9647C57.9944 26.9583 57.9932 26.9519 57.9922 26.9455C57.9898 26.9294 57.9869 26.9136 57.9832 26.898C57.9817 26.8919 57.9801 26.8858 57.9785 26.8796C57.9738 26.8627 57.9685 26.8461 57.9624 26.8298C57.9613 26.8267 57.9606 26.8235 57.9594 26.8204L56.3302 22.6498C56.166 22.2296 55.7682 21.9579 55.317 21.9579H52.3506C52.0272 21.9579 51.7651 22.22 51.7651 22.5434C51.7651 22.8668 52.0272 23.1288 52.3506 23.1288H55.2603L56.5568 26.448H44.299L43.5309 23.1288H48.058C48.3813 23.1288 48.6434 22.8668 48.6434 22.5434C48.6434 22.22 48.3813 21.9579 48.058 21.9579H42.7945H36.8954H24.3729C23.9216 21.9579 23.5239 22.2296 23.3597 22.65L21.7305 26.8204C21.7293 26.8236 21.7287 26.8268 21.7275 26.8298C21.7214 26.8461 21.7161 26.8626 21.7115 26.8796C21.7098 26.8858 21.7082 26.8919 21.7067 26.898C21.703 26.9137 21.7001 26.9295 21.6977 26.9455C21.6967 26.9519 21.6955 26.9583 21.6947 26.9647C21.6927 26.9822 21.6916 26.9998 21.6911 27.0177C21.691 27.0222 21.6905 27.0266 21.6904 27.0312C21.6904 27.0319 21.6903 27.0326 21.6903 27.0334V35.6345C21.6903 35.9579 21.9524 36.22 22.2758 36.22C22.5991 36.22 22.8612 35.9579 22.8612 35.6345V27.6189H35.2711V36.5178C35.2711 36.8658 35.4761 37.1829 35.7934 37.3257C35.9096 37.378 36.0333 37.4035 36.1562 37.4035C36.3689 37.4035 36.5793 37.3272 36.7443 37.1809L39.845 34.4339L42.9457 37.1808C43.206 37.4117 43.5793 37.4685 43.8967 37.3257C44.2139 37.1829 44.4189 36.8658 44.4189 36.5178V27.6189H56.8287V53.8783C56.8287 54.2984 56.4868 54.6402 56.0667 54.6402H45.3321C45.3321 54.6336 45.3313 54.627 45.3312 54.6203C45.3305 54.5678 45.3286 54.5153 45.3241 54.4633C46.3321 54.7305 47.409 54.2125 47.813 53.2219C48.0254 52.7008 48.0223 52.1283 47.8041 51.6097C47.7835 51.5608 47.7608 51.5134 47.737 51.4668C47.7326 51.4582 47.7283 51.4495 47.7239 51.4411C47.7004 51.3965 47.6755 51.353 47.6491 51.3107C47.644 51.3024 47.6387 51.2944 47.6335 51.2863C47.6056 51.2428 47.5767 51.2001 47.5459 51.159C47.5453 51.1582 47.5447 51.1575 47.5441 51.1568C47.5135 51.1162 47.4812 51.0771 47.4478 51.0389C47.4417 51.0319 47.4357 51.0249 47.4295 51.0179C47.3965 50.9811 47.3621 50.9454 47.3266 50.9111C47.3196 50.9044 47.3125 50.8979 47.3055 50.8913C47.2683 50.8563 47.2301 50.8223 47.1904 50.7902C47.1891 50.7891 47.1877 50.7881 47.1863 50.7871C47.1473 50.7556 47.1067 50.7258 47.0653 50.6971C47.0578 50.6919 47.0505 50.6866 47.0428 50.6815C47.0014 50.6536 46.959 50.6273 46.9154 50.6022C46.9118 50.6002 46.9086 50.5978 46.9049 50.5957C47.1523 50.3815 47.3476 50.1106 47.4748 49.7987C47.6872 49.2777 47.6841 48.7051 47.4659 48.1864C47.275 47.7326 46.9394 47.3676 46.5095 47.1412C46.4481 47.1088 46.3848 47.0793 46.3197 47.0528L37.2078 43.3374L41.4492 42.0246C42.4583 41.7122 43.0266 40.636 42.7161 39.6256C42.6002 39.2485 42.3705 38.9304 42.0737 38.6979C41.6321 38.3519 41.0418 38.1957 40.4564 38.3186C40.4536 38.3192 40.4509 38.3197 40.4481 38.3204C40.4157 38.3277 37.1642 39.0588 33.7683 39.721C33.6177 39.7504 33.4709 39.7787 33.3262 39.8066C33.2104 39.8289 33.0962 39.8508 32.9842 39.8721C32.952 39.8783 32.9197 39.8844 32.8878 39.8904C32.69 39.928 32.4984 39.964 32.3121 39.9986C32.2371 40.0125 32.1628 40.0263 32.0897 40.0397C27.825 40.8254 26.627 40.8395 26.2945 40.7944C26.2932 40.7943 26.2921 40.7941 26.2908 40.7939C26.2857 40.7932 26.2808 40.7924 26.2761 40.7917C26.2728 40.7912 26.2697 40.7906 26.2665 40.7901C26.2643 40.7897 26.2619 40.7893 26.2597 40.789C26.239 40.7852 26.2228 40.7813 26.2103 40.7776L26.1144 40.7385L26.2339 40.4453C26.3515 40.157 26.3497 39.8402 26.2291 39.5533C26.1989 39.4816 26.1621 39.4138 26.1195 39.3507C25.9917 39.1615 25.811 39.0142 25.5948 38.926L22.4503 37.6439C22.1621 37.5262 21.8452 37.5281 21.5583 37.6487C21.2713 37.7694 21.0486 37.9947 20.931 38.2829L17.0859 47.7131C16.8433 48.3082 17.13 48.9896 17.7251 49.2323L20.8697 50.5145C21.0133 50.5731 21.1618 50.6008 21.3081 50.6008C21.768 50.6008 22.2047 50.3268 22.3888 49.8754L22.4177 49.8045L23.1428 50.1001C23.1432 50.1002 23.1436 50.1005 23.1441 50.1006C23.8375 50.3834 24.4765 50.7868 25.0295 51.2875C25.1301 51.3785 25.2278 51.4728 25.3225 51.5701C25.4172 51.6674 25.5088 51.7678 25.5973 51.8711C25.6415 51.9227 25.685 51.9752 25.7275 52.0283C26.5334 53.0331 27.5897 53.8213 28.7823 54.3076L29.598 54.6402H23.6232C23.2031 54.6402 22.8613 54.2983 22.8613 53.8782V52.3969C22.8613 52.0735 22.5992 51.8114 22.2758 51.8114C21.9525 51.8114 21.6904 52.0735 21.6904 52.3969V53.8782C21.6904 54.944 22.5574 55.8111 23.6232 55.8111H32.4697L40.0115 58.8862C40.2711 58.9921 40.5397 59.0423 40.8042 59.0422C41.6353 59.0422 42.4247 58.5469 42.7575 57.731C42.8939 57.3964 42.9377 57.0466 42.901 56.7103C43.2933 56.7666 43.7 56.715 44.0687 56.5558C44.4433 56.394 44.7539 56.1362 44.9744 55.811H56.0668C57.1326 55.811 57.9997 54.944 57.9997 53.8781V27.0334C57.9996 27.0326 57.9995 27.032 57.9995 27.0312ZM37.3609 23.1288H42.3291L43.0971 26.448H36.5928L37.3609 23.1288ZM35.391 26.448H23.1331L24.4296 23.1288H36.159L35.391 26.448ZM43.2482 35.8845H43.2481L40.4324 33.39C40.265 33.2417 40.055 33.1676 39.8451 33.1676C39.6352 33.1676 39.4251 33.2417 39.2577 33.39L36.442 35.8845V27.6189H43.2482V35.8845ZM21.3067 49.4282L18.1722 48.1502L22.0132 38.7302L25.1477 40.0083L21.3067 49.4282ZM44.6962 52.9613L44.0243 52.6873C44.024 52.6871 44.0237 52.6871 44.0233 52.6869C44.0231 52.6868 44.0229 52.6867 44.0226 52.6866C44.0225 52.6866 44.0225 52.6865 44.0224 52.6865L37.0247 49.8332C36.7254 49.7112 36.3837 49.8549 36.2615 50.1544C36.1394 50.4538 36.2832 50.7955 36.5827 50.9176L43.5805 53.7709C43.6097 53.7829 43.638 53.7961 43.6653 53.8106C43.673 53.8146 43.6801 53.8196 43.6877 53.8239C43.7069 53.8347 43.7262 53.8456 43.7444 53.8577C43.7531 53.8636 43.7611 53.8703 43.7696 53.8764C43.7857 53.8879 43.8021 53.8993 43.8173 53.9118C43.8265 53.9193 43.8348 53.9277 43.8437 53.9356C43.8573 53.9477 43.8713 53.9593 43.8841 53.9722C43.893 53.981 43.9009 53.9907 43.9094 53.9998C43.9212 54.0124 43.9333 54.0248 43.9443 54.0381C43.9527 54.0483 43.9601 54.0591 43.9681 54.0696C43.9781 54.0827 43.9885 54.0956 43.9977 54.1093C44.0055 54.1206 44.0121 54.1326 44.0193 54.1442C44.0277 54.1577 44.0365 54.1709 44.0441 54.1848C44.051 54.1973 44.0567 54.2103 44.0631 54.223C44.0698 54.2367 44.0771 54.2502 44.0832 54.2642C44.089 54.2777 44.0937 54.2916 44.0989 54.3053C44.1042 54.3191 44.11 54.3327 44.1146 54.3468C44.1193 54.361 44.1228 54.3755 44.1267 54.3898C44.1306 54.404 44.1351 54.4179 44.1383 54.4323C44.1416 54.4468 44.1437 54.4615 44.1463 54.4761C44.149 54.4907 44.152 54.5051 44.1539 54.5198C44.1559 54.5345 44.1566 54.5494 44.1578 54.5643C44.159 54.5791 44.1608 54.594 44.1612 54.6089C44.1617 54.6235 44.161 54.6383 44.1608 54.6531C44.1607 54.6683 44.1609 54.6835 44.16 54.6988C44.1591 54.7133 44.1569 54.7278 44.1553 54.7423C44.1536 54.7579 44.1523 54.7735 44.1498 54.789C44.1475 54.8033 44.1439 54.8175 44.1409 54.8317C44.1375 54.8475 44.1347 54.8633 44.1305 54.879C44.1268 54.8928 44.1218 54.9066 44.1174 54.9204C44.1125 54.9361 44.1079 54.9518 44.1021 54.9672C44.0971 54.9779 44.0922 54.9886 44.0876 54.9994C44.0866 55.0019 44.086 55.0044 44.0851 55.0068C43.9936 55.218 43.8248 55.3858 43.6044 55.481C43.3617 55.5856 43.0839 55.5893 42.8421 55.4907L41.6023 54.9851C41.5965 54.9828 41.5907 54.9812 41.5849 54.9791C41.579 54.9764 41.5735 54.9734 41.5676 54.971L35.876 52.6502C35.5764 52.5282 35.2349 52.6719 35.1128 52.9713C34.9907 53.2708 35.1344 53.6124 35.4339 53.7346L41.1255 56.0553C41.1316 56.0578 41.1377 56.0596 41.1439 56.0618C41.1494 56.0642 41.1546 56.0672 41.1602 56.0694C41.6379 56.2642 41.8681 56.8113 41.6734 57.289C41.4785 57.7668 40.9317 57.9971 40.4538 57.8021L32.8067 54.684C32.8064 54.6839 32.8061 54.6837 32.8058 54.6836L29.2247 53.2233C28.5943 52.9663 28.0089 52.6096 27.4922 52.1706C27.1821 51.9073 26.8968 51.6144 26.6412 51.2957C26.3894 50.9817 26.1131 50.6889 25.8159 50.4197C25.1619 49.8277 24.4063 49.3507 23.5864 49.0163C23.5863 49.0163 23.5862 49.0162 23.5862 49.0162L22.8602 48.7202L24.3061 45.174L25.6726 41.8228L25.7734 41.8639C25.8683 41.9026 26.0036 41.9575 26.3678 41.9713C26.8228 41.9919 27.5756 41.9444 28.9241 41.7539C29.8414 41.6243 30.9665 41.4369 32.2801 41.1952C32.3124 41.1893 32.3445 41.1834 32.3772 41.1774C32.4386 41.166 32.5007 41.1545 32.563 41.1429C32.6114 41.134 32.6601 41.1248 32.7092 41.1156C32.7651 41.1051 32.8212 41.0947 32.8778 41.084C32.9377 41.0727 32.9984 41.0613 33.0595 41.0497C33.1083 41.0404 33.1571 41.0312 33.2064 41.0218C33.2808 41.0076 33.3565 40.9931 33.4324 40.9785C33.4715 40.971 33.5101 40.9637 33.5495 40.9561C33.6658 40.9337 33.7836 40.911 33.9036 40.8877C37.2877 40.2294 40.5541 39.4968 40.7009 39.4638C40.7156 39.4607 40.7302 39.459 40.7449 39.4568C41.1209 39.4012 41.4894 39.6187 41.5972 39.9696C41.6351 40.0929 41.6395 40.2187 41.6156 40.337C41.5632 40.5975 41.3739 40.8223 41.1033 40.906L35.2991 42.7025C35.0628 42.7757 34.898 42.9892 34.8873 43.2363C34.8766 43.4834 35.0222 43.7106 35.2512 43.8039L45.8779 48.137C46.1093 48.2314 46.2901 48.4102 46.387 48.6406C46.4839 48.8709 46.4853 49.1253 46.3909 49.3566C46.2965 49.588 46.1178 49.7689 45.8874 49.8658C45.7722 49.9141 45.6511 49.9386 45.5298 49.9394C45.528 49.9394 45.5262 49.9391 45.5245 49.9391C45.496 49.9391 45.4675 49.938 45.4391 49.9353C45.4307 49.9345 45.4224 49.9328 45.414 49.9318C45.3923 49.9292 45.3706 49.9267 45.349 49.9225C45.3354 49.9199 45.322 49.9159 45.3084 49.9127C45.2923 49.9088 45.276 49.9056 45.26 49.9008C45.2434 49.8959 45.2272 49.8895 45.2108 49.8836C45.1978 49.879 45.1846 49.8751 45.1718 49.8699L38.1733 47.0163C37.8739 46.8941 37.5323 47.0379 37.4102 47.3374C37.2881 47.6368 37.4318 47.9785 37.7313 48.1006L46.216 51.5602C46.2739 51.5838 46.3285 51.6127 46.3796 51.6463C46.5326 51.7472 46.6525 51.8909 46.7251 52.0637C46.8099 52.2653 46.8216 52.4852 46.7599 52.692C46.7511 52.7216 46.7408 52.7509 46.729 52.7798C46.7168 52.8097 46.7033 52.8386 46.6885 52.8664C46.654 52.9313 46.6119 52.9899 46.565 53.0433C46.5359 53.0765 46.5047 53.1074 46.4716 53.1357C46.4663 53.1402 46.4615 53.1454 46.4561 53.1497C46.2425 53.3244 45.9568 53.3995 45.6778 53.3431C45.6211 53.3317 45.5648 53.3154 45.5094 53.2929L44.6962 52.9613Z" fill="#3A66AE"/>
</g>
<defs>
<clipPath id="clip0">
<rect width="41" height="41" fill="white" transform="translate(17 20)"/>
</clipPath>
</defs>
</svg>
