<svg width="40" height="40" viewBox="0 0 40 40" fill="none" xmlns="http://www.w3.org/2000/svg">
<circle opacity="0.5" cx="20" cy="20" r="20" fill="#E8EEFA"/>
<path fill-rule="evenodd" clip-rule="evenodd" d="M12.6742 12C12.2652 12 11.9336 12.3316 11.9336 12.7406C11.9336 12.7793 11.9366 12.8172 11.9423 12.8543C11.9366 12.8924 11.9336 12.9314 11.9336 12.9712V26.2163C11.9336 26.3728 11.9795 26.5187 12.0586 26.6411C12.1845 26.8359 12.3945 26.9713 12.6372 26.996C12.6635 26.9986 12.6903 27 12.7173 27H29.2149C29.5937 27 29.9096 26.7314 29.9827 26.3742C29.9932 26.3232 29.9986 26.2704 29.9986 26.2163V12.9712C29.9986 12.933 29.9959 12.8954 29.9906 12.8586C29.9968 12.8202 30 12.7808 30 12.7406C30 12.3316 29.6684 12 29.2593 12H12.6742ZM28.4312 25.4325H13.5011L13.5011 18.2383L20.4841 22.7041C20.63 22.7974 20.795 22.8363 20.9554 22.8261C21.1165 22.8368 21.2822 22.7979 21.4286 22.7043L28.4312 18.2256V25.4325ZM28.4312 16.3974C28.3663 16.4177 28.303 16.4469 28.2429 16.4854L20.9565 21.1456L13.6697 16.4855C13.6157 16.451 13.5591 16.4239 13.5011 16.404L13.5011 13.4813H28.4312V16.3974Z" fill="#3A66AE"/>
</svg>
