<svg width="308" height="69" viewBox="0 0 308 69" fill="none" xmlns="http://www.w3.org/2000/svg">
<path fill-rule="evenodd" clip-rule="evenodd" d="M5.35275 40.2596C6.26658 41.5495 13.0765 56.9755 13.5773 58.7257L16.7414 58.7118C17.2326 57.2174 18.1249 55.4019 18.7809 53.946L22.9112 44.8288C23.2623 44.1199 23.6344 43.3226 23.9658 42.5695C24.1176 42.2246 24.8427 40.5319 25.1599 40.3585L25.159 61.2928L29.0817 61.3472C29.0838 57.9331 29.2603 36.7887 28.9994 35.2255L23.7936 35.2261C22.9901 36.3011 18.1695 46.8374 17.3943 48.6973C16.9921 49.6626 15.8888 52.6753 15.3763 53.2951C14.403 50.7665 8.68438 37.7761 7.10404 35.2258L1.56035 35.2237C1.33397 37.8441 1.53355 57.1209 1.53848 61.3472H5.35121L5.35275 40.2596Z" fill="white"/>
<path fill-rule="evenodd" clip-rule="evenodd" d="M159.509 45.6709C161.063 45.0871 162.958 44.9255 164.756 44.9814C166.899 45.0479 168.124 45.5082 168.83 46.9449C169.864 49.0468 169.904 55.2455 168.56 57.0957C167.669 58.3217 166.331 58.7543 164.237 58.7596C162.574 58.764 160.28 58.4127 159.673 57.1607C159.323 56.4359 159.478 47.2269 159.509 45.6709ZM159.501 60.6325C160.231 60.8044 160.967 61.3362 162.045 61.5884C164.62 62.1899 168.76 61.8435 170.566 60.3144C173.172 58.1069 173.67 54.0724 173.362 49.9461C173.046 45.6986 171.667 43.0367 167.704 42.1494C164.859 41.5123 161.126 41.8852 158.256 42.5132C157.653 42.645 155.976 42.8878 155.817 43.4935L155.819 68.544H159.501V60.6325Z" fill="white"/>
<path fill-rule="evenodd" clip-rule="evenodd" d="M66.0039 26.7646H82.7917L82.821 31.7661L85.6746 31.8229L86.6159 23.6363L82.5795 23.6033L82.5767 7.76501H78.946L78.8934 23.5524L69.597 23.6133L69.5939 7.76501H65.9558C65.7526 9.49075 65.7193 25.5715 66.0039 26.7646Z" fill="white"/>
<path fill-rule="evenodd" clip-rule="evenodd" d="M20.4283 26.2867L19.4843 22.9332C16.0018 23.7075 11.3285 24.4438 7.92538 22.9974C4.80596 21.6716 4.38308 17.6095 4.37291 13.6065C4.36306 9.74154 4.63533 5.62055 7.78586 4.24237C11.1674 2.76325 16.0319 3.63966 19.5231 4.35891L20.4496 0.936573C15.5644 0.211729 9.4506 -0.963385 5.01078 1.42657C3.13044 2.43865 1.88797 3.76091 1.06407 6.15528C-0.727253 11.3607 -0.813494 22.9279 5.25626 25.8779C9.18048 27.7852 16.0748 27.6784 20.4283 26.2867Z" fill="white"/>
<path fill-rule="evenodd" clip-rule="evenodd" d="M89.6949 26.7657C94.5706 26.7619 92.7405 27.4873 95.9058 23.6068L102.813 13.6449L102.833 26.7648H106.518L106.514 7.76613H102.853L93.4171 21.3751L93.4153 7.80675L89.7381 7.76172L89.6949 26.7657Z" fill="white"/>
<path fill-rule="evenodd" clip-rule="evenodd" d="M197.395 61.3472C198.156 60.9137 200.482 57.6553 201.232 56.6279L207.002 48.285L207.008 61.3395L210.694 61.3051V42.355L206.957 42.3567C206.266 43.9574 201.343 51.2099 200.073 52.9121C199.258 54.004 198.513 55.0681 197.594 56.0281L197.592 42.3417L193.866 42.407L193.866 61.3286L197.395 61.3472Z" fill="white"/>
<path fill-rule="evenodd" clip-rule="evenodd" d="M123.607 23.4047C123.338 23.8665 123.857 23.5301 123.133 23.8212C122.042 24.26 119.104 24.4348 117.912 24.3844C115.461 24.2806 114.585 23.6608 114.48 21.2849C114.37 18.7993 114.732 17.7243 117.227 17.4938C119.487 17.2852 121.483 17.5506 123.607 17.8161V23.4047ZM111.667 8.13973C111.524 9.0435 112.098 10.2669 112.267 11.216C114.457 10.746 121.117 9.33191 122.86 11.6536C123.469 12.4647 123.68 14.0312 123.555 15.1966C119.489 14.5506 112.458 13.5194 110.862 18.1333C110.368 19.561 110.327 21.591 110.677 23.1552C112.111 29.5537 122.745 27.0198 127.18 25.8462C127.38 23.2349 127.214 20.0371 127.214 17.362C127.214 14.8378 127.427 11.615 126.074 9.72921C123.542 6.2021 116.34 7.12648 111.667 8.13973Z" fill="white"/>
<path fill-rule="evenodd" clip-rule="evenodd" d="M207.557 23.6413C205.787 24.2852 203.694 24.4853 201.661 24.3746C199.185 24.2396 198.53 23.5068 198.464 21.1253C198.397 18.7154 198.82 17.6956 201.323 17.4852C203.084 17.3372 205.99 17.3787 207.601 17.8914L207.557 23.6413ZM195.547 8.18791L196.298 11.1853C199.119 10.6491 200.839 10.1767 203.941 10.4587C206.953 10.7327 207.688 12.1888 207.576 15.1671C205.007 15.0673 200.87 13.9528 197.497 15.3381C194.804 16.4446 193.954 19.5897 194.647 23.0868C195.287 26.3199 197.86 27.1286 201.493 27.2655C205.023 27.3985 208.172 26.8564 211.173 25.7902C211.384 23.186 211.205 19.8802 211.205 17.1995C211.205 11.5408 211.425 7.46925 203.555 7.25265C201.309 7.19084 197.499 7.52752 195.547 8.18791Z" fill="white"/>
<path fill-rule="evenodd" clip-rule="evenodd" d="M228.816 51.039C227.08 51.1997 224.321 51.1264 222.52 51.0799C220.369 51.0246 219.46 50.1373 219.482 48.0655C219.504 45.9327 220.514 45.3577 222.688 45.3438C224.647 45.3318 226.831 45.2694 228.809 45.3642L228.816 51.039ZM232.541 42.4124C230.665 42.1193 226.363 42.3485 224.231 42.3485C221.666 42.3485 218.9 42.1537 217.214 43.6449C214.757 45.8188 214.868 50.3242 217.509 52.0358C217.95 52.3218 218.418 52.4934 218.933 52.6373C219.196 52.7106 219.459 52.7521 219.761 52.8089C219.851 52.8257 220.105 52.868 220.172 52.8904C220.472 52.9902 220.447 53.0352 220.583 53.1253C218.618 53.4587 217.551 55.0855 216.694 56.5476C215.957 57.8042 214.63 59.972 214.249 61.3487L218.441 61.3375C218.887 59.6862 220.599 56.7524 221.564 55.6488C223.324 53.6367 225.598 53.7921 228.8 53.9887C228.854 55.4093 228.588 60.4408 228.952 61.3502L232.537 61.3278L232.541 42.4124Z" fill="white"/>
<path fill-rule="evenodd" clip-rule="evenodd" d="M85.4215 58.2351C83.571 58.798 81.6772 59.0841 79.5014 58.9587C76.9989 58.8142 76.3306 57.9784 76.2841 55.5782C76.2354 53.0723 76.7941 52.2168 79.3721 52.0484C81.2204 51.9278 83.7112 51.9919 85.4215 52.436V58.2351ZM74.1589 45.7405C75.24 45.6187 76.3987 45.2111 77.744 45.0798C83.568 44.5116 85.3559 45.2173 85.4175 49.7594C82.2223 49.4943 78.2842 48.6131 75.2643 49.9416C72.6441 51.0946 71.7509 54.1588 72.4757 57.6806C73.1428 60.922 75.6604 61.726 79.4577 61.8519C81.319 61.9134 88.3004 61.3837 89.0285 60.1509C89.0285 57.2657 89.0285 54.3804 89.0285 51.4952C89.0285 48.7785 89.1141 46.2402 87.786 44.1923C85.4572 40.6013 75.2045 41.8494 73.3612 42.85L74.1589 45.7405Z" fill="white"/>
<path fill-rule="evenodd" clip-rule="evenodd" d="M229.15 16.4991C223.726 16.4991 219.905 17.4143 219.87 13.6074C219.849 11.2486 220.885 10.7683 223.206 10.7624C225.205 10.7571 227.205 10.7636 229.209 10.7636L229.15 16.4991ZM221.182 18.3882C219.012 19.3243 218.608 19.5097 217.149 21.8699C216.58 22.7899 214.806 25.797 214.697 26.7661H218.705C219.736 25.1063 220.033 23.4144 221.854 21.1307C223.571 18.9762 225.903 19.3808 229.139 19.3808L229.216 26.7576L232.865 26.7649L232.93 7.77918C230.163 7.69648 227.317 7.76652 224.573 7.76652C221.777 7.76652 219.498 7.63203 217.569 9.04052C216.195 10.0438 215.417 12.9302 216.126 15.1336C216.833 17.3308 218.546 18.0282 221.182 18.3882Z" fill="white"/>
<path fill-rule="evenodd" clip-rule="evenodd" d="M48.6457 15.1111C48.9146 11.6867 49.9411 10.2699 53.646 10.2055C57.5607 10.1372 58.2559 11.5513 58.4333 15.1108L48.6457 15.1111ZM60.8027 26.183C60.759 25.5302 60.3364 23.8242 60.0977 23.3127C57.8561 23.9516 54.5192 24.5129 52.0349 23.9575C49.2139 23.3266 48.6543 21.0726 48.5961 17.9966L62.1142 17.9925C62.3538 12.7897 61.4495 8.28787 56.4954 7.44148C51.9034 6.65719 46.7604 7.48975 45.2811 12.3082C43.9875 16.5216 44.504 23.0638 47.3478 25.3439C48.9765 26.6497 50.8793 27.2327 53.6485 27.2854C55.3293 27.3175 59.5664 26.8678 60.8027 26.183Z" fill="white"/>
<path fill-rule="evenodd" clip-rule="evenodd" d="M37.6661 49.6917C37.8759 46.2643 39.0361 44.84 42.7078 44.7846C46.5258 44.7272 47.2798 46.1899 47.4433 49.6876L37.6661 49.6917ZM49.1801 57.8886C42.4981 59.3477 37.7545 60.0449 37.6095 52.5816L51.1193 52.5087C51.2939 50.3238 51.0235 47.4568 50.2449 45.5963C48.2844 40.9103 41.3323 41.3385 38.1528 42.568C31.8705 44.9977 32.8623 56.775 36.2253 59.8124C39.4005 62.68 45.3674 62.0608 49.8783 60.8139L49.1801 57.8886Z" fill="white"/>
<path fill-rule="evenodd" clip-rule="evenodd" d="M173.801 26.7651L177.47 26.7598L177.527 18.107L186.781 18.1094L186.79 26.7654L190.456 26.7589L190.506 7.80321L186.826 7.76172L186.779 15.0575L177.526 15.0752L177.52 7.79733L173.841 7.76231L173.801 26.7651Z" fill="white"/>
<path fill-rule="evenodd" clip-rule="evenodd" d="M23.7576 26.7555L27.3923 26.7593L27.4419 10.911H36.7271L36.7413 26.7602L40.3785 26.7578L40.4247 7.81063L23.7908 7.76501L23.7576 26.7555Z" fill="white"/>
<path fill-rule="evenodd" clip-rule="evenodd" d="M133.764 42.3481C134.846 45.1004 141.291 60.7112 140.769 62.539C140.596 63.145 139.611 64.8943 139.286 65.5464C138.848 66.4234 138.053 67.6803 137.768 68.5376C142.631 68.545 141.603 69.2925 143.412 65.5611C146.234 59.7394 151.309 47.8011 152.64 42.3481H148.802C148.556 43.405 144.411 56.5534 143.132 57.7644C142.529 55.2691 141.49 52.3206 140.632 49.8776L137.722 42.3531L133.764 42.3481Z" fill="white"/>
<path fill-rule="evenodd" clip-rule="evenodd" d="M156.54 17.8813C158.649 17.8813 160.764 17.8672 162.873 17.8804C165.189 17.8948 166.032 18.6947 165.992 20.9552C165.951 23.2895 165.103 23.9155 162.699 23.9193C160.633 23.9228 158.567 23.9181 156.498 23.9181L156.54 17.8813ZM152.779 26.7645C156.363 26.7645 159.873 26.7698 163.382 26.7654C166.977 26.7607 169.23 25.8455 169.799 22.675C171.465 13.3818 163.109 14.996 156.501 14.996L156.497 7.79674L152.82 7.76172L152.779 26.7645Z" fill="white"/>
<path fill-rule="evenodd" clip-rule="evenodd" d="M130.796 26.7658H134.597C136.027 23.8967 137.692 14.4231 137.975 11.0046L144.23 10.9069L144.235 26.7658L147.901 26.7605L147.955 7.79798L134.509 7.76501C133.963 10.9849 134.146 13.2183 133.192 17.7233C132.849 19.3402 132.482 20.8319 132.071 22.3899C131.785 23.4762 130.834 25.9641 130.796 26.7658Z" fill="white"/>
<path fill-rule="evenodd" clip-rule="evenodd" d="M117.061 61.348C117.653 60.9448 118.17 58.4775 118.393 57.662C119.783 52.5734 119.763 49.9421 120.672 45.4936H126.859L126.861 61.3309L130.587 61.348V42.3481L117.09 42.3773C116.913 45.819 116.47 49.1228 115.794 52.4206C114.976 56.4148 114.121 58.2682 113.376 61.348H117.061Z" fill="white"/>
<path fill-rule="evenodd" clip-rule="evenodd" d="M96.2083 61.3462C96.7026 61.0766 96.5619 61.1225 96.7541 60.5004L98.4854 53.8358C99.089 50.9947 99.3545 48.3476 99.8406 45.4882L106.042 45.5482L106.044 61.3462H109.768V42.3448L96.2714 42.4093C96.0743 45.8834 95.6431 49.1112 94.9809 52.435C94.2263 56.2202 93.1557 58.714 92.5545 61.3462H96.2083Z" fill="white"/>
<path fill-rule="evenodd" clip-rule="evenodd" d="M52.5529 45.4888L59.8876 45.5539V61.3472H63.6122C63.6107 57.564 63.4508 48.7078 63.6424 45.4977L70.9081 45.488V42.3511L52.5529 42.3481V45.4888Z" fill="white"/>
<path fill-rule="evenodd" clip-rule="evenodd" d="M181.419 45.4974L190.925 45.4927L190.932 42.3481H177.708L177.707 61.3472H181.393L181.419 45.4974Z" fill="white"/>
<path fill-rule="evenodd" clip-rule="evenodd" d="M295.958 14.0591C298.132 14.8999 301.347 18.3311 301.673 18.54L308 12.1353C300.831 4.29504 285.921 -1.75004 271.222 4.28386C264.805 6.91778 260.589 10.5564 257.226 14.9196C249.04 25.5407 249.075 40.4528 257.034 51.1839C258.855 53.6392 260.717 55.4715 263.042 57.3594C273.325 65.7108 289.45 66.7671 301.06 59.7435C303.028 58.5524 304.814 57.3582 306.331 55.7987C306.683 55.4374 307.525 54.5895 307.995 54.3364C307.674 53.5109 307.06 53.3196 306.428 52.6575L301.66 47.8764C301.187 48.1062 299.891 49.3979 299.501 49.7634C298.714 50.5009 298.059 50.977 297.154 51.5986C295.649 52.633 293.508 53.6996 291.484 54.3488C286.67 55.8929 281.795 56.0239 276.876 54.5977C269.165 52.3623 262.436 45.8434 260.803 37.6185C257.424 20.596 273.777 7.18383 290.113 11.5764C291.678 11.9973 295.02 13.211 295.958 14.0591Z" fill="#CE4746"/>
<path fill-rule="evenodd" clip-rule="evenodd" d="M301.673 18.5437C301.347 18.3347 298.133 14.9035 295.959 14.0627C295.685 14.3108 295.543 14.5236 295.256 14.8447L286.665 23.4522C285.643 24.4236 284.494 25.6959 283.371 26.5717C281.863 25.6485 277.783 20.8544 276.705 20.5145L269.947 20.5078L269.907 43.9144L278.148 43.9356L278.179 32.9943C279.16 33.4355 282.477 36.9932 283.371 37.7566C284.147 37.3202 291.484 29.5184 292.54 28.2468C292.926 27.7824 293.302 27.5261 293.687 27.0611L297.041 23.3986C297.264 23.1611 297.426 23.0825 297.658 22.8553C297.874 22.6452 298.001 22.466 298.204 22.2288C298.655 21.6994 298.831 21.5749 299.362 21.0537L301.673 18.5437Z" fill="#4992AF"/>
<path fill-rule="evenodd" clip-rule="evenodd" d="M288.629 37.8733L288.66 43.9387L296.831 43.9372C296.992 42.3669 296.895 32.222 296.878 29.7332C296.187 30.1487 289.811 37.0443 288.629 37.8733Z" fill="#4992AF"/>
</svg>
