<svg width="40" height="40" viewBox="0 0 40 40" fill="none" xmlns="http://www.w3.org/2000/svg">
<circle opacity="0.5" cx="20" cy="20" r="20" fill="#E8EEFA"/>
<path d="M25.7415 22.7231L25.7414 22.723L24.4602 21.8691L24.4597 21.8687C23.8704 21.4766 23.0785 21.6052 22.6435 22.1636L22.6432 22.164L21.964 23.0371C21.7388 22.9144 21.5256 22.7981 21.2377 22.5949C20.8814 22.3435 20.4058 21.9532 19.7271 21.2736C19.048 20.5937 18.6574 20.1177 18.4055 19.7612C18.2023 19.4737 18.0854 19.2604 17.9629 19.0359L18.836 18.3568L18.8364 18.3565C19.3948 17.9215 19.5233 17.1296 19.1313 16.5404L19.1309 16.5398L18.3032 15.298L18.3032 15.298L17.3161 13.8174C17.3161 13.8174 17.3161 13.8174 17.3161 13.8173C16.9157 13.2167 16.1141 13.0364 15.4951 13.4076L15.495 13.4077L14.359 14.0892C13.8791 14.373 13.5265 14.8301 13.3738 15.3662L13.3738 15.3662L13.3718 15.3736C12.9621 16.8673 13.073 19.6485 17.2124 23.7878C21.3517 27.9272 24.1327 28.0379 25.6264 27.6282L25.6264 27.6282L25.6337 27.6261C26.1699 27.4735 26.627 27.1209 26.9107 26.6411L27.5923 25.505L27.5923 25.5049C27.9636 24.8858 27.7833 24.0844 27.1827 23.6839C27.1827 23.6839 27.1827 23.6839 27.1826 23.6839L25.7415 22.7231Z" stroke="#3A66AE" stroke-width="1.57"/>
</svg>
